<?xml version="1.0" encoding="utf-8"?>
<!-- Generator: Adobe Illustrator 19.0.0, SVG Export Plug-In . SVG Version: 6.00 Build 0)  -->
<svg version="1.1" id="Capa_1" xmlns="http://www.w3.org/2000/svg" xmlns:xlink="http://www.w3.org/1999/xlink" x="0px" y="0px"
	 viewBox="0 0 170.2 120.1" style="enable-background:new 0 0 170.2 120.1;" xml:space="preserve">
<style type="text/css">
	.st0{fill:#C5CF38;}
</style>
<g id="XMLID_41_">
	<g id="XMLID_49_">
		<path id="XMLID_51_" class="st0" d="M51.7,83.2c-1.4,1.5-2.8,3-4.2,4.5C38.7,97.3,21,116.5,21,116.5l-0.9,0.9
			c-1,1.1-2,1.7-3.9,2.1c0,0-1,0.1-1.4,0.1s-1.3,0-1.3,0c-3.8,0-6.8-3.9-6.3-7.6l0,0c0.1-1.3,0.7-2.4,1.7-3.3
			c4.7-4.4,20-18.4,26.9-24.7l6.5-6c0.8-0.7,1.5-1.4,2.3-2.1c1-0.9,1.7-0.9,2.5-0.1c1.4,1.3,2.7,2.7,4,4c0.3,0.3,0.6,0.6,0.9,0.9
			C52.6,81.7,52.5,82.4,51.7,83.2z"/>
		<path id="XMLID_50_" class="st0" d="M62.8,20.9c9.8,19.6,24.4,34.3,43.9,44c-5.4,7.2-16.1,11.7-26.3,10.7
			C65.7,74,56.2,63.7,53.3,52.9C50,41.1,53.9,27.9,62.8,20.9z"/>
	</g>
	<g id="XMLID_46_">
		<path id="XMLID_48_" class="st0" d="M168.6,39.9v6.9c0,14.9-12.1,27-27,27h-22.9c1.8-2.2,3.5-4.5,4.8-7c0.2-0.3,0.4-0.6,0.5-1
			h17.6c10.5,0,19-8.5,19-19v-6.9c0-10.5-8.5-19-19-19h-18.7c-0.2-0.4-0.4-0.7-0.7-1.1c-1.6-2.5-3.4-4.8-5.4-6.9h24.8
			C156.5,12.8,168.6,25,168.6,39.9z"/>
		<path id="XMLID_47_" class="st0" d="M43.3,66.8c1.4,2.5,3,4.8,4.8,7H32.5c-14.9,0-27-12.1-27-27v-6.9c0-14.9,12.1-27,27-27H50
			c-2,2.1-3.8,4.5-5.4,6.9c-0.2,0.4-0.4,0.7-0.7,1.1H32.5c-10.5,0-19,8.5-19,19v6.9c0,10.5,8.5,19,19,19h10.3
			C43,66.1,43.1,66.5,43.3,66.8z"/>
	</g>
	<g id="XMLID_42_">
		<path id="XMLID_43_" class="st0" d="M120.6,20.8c-1.9-2.9-4.1-5.6-6.6-8c-0.5-0.5-1.1-1-1.6-1.5c-3.9-3.4-8.5-6.2-13.5-8
			C93.9,1.4,88.6,0.4,83,0.4h-0.3c-5.3,0-10.4,1-15.2,2.9c-4.8,1.9-9.3,4.6-13.1,8c-0.5,0.5-1.1,1-1.6,1.5c-2.5,2.4-4.6,5.1-6.5,8
			c-4.4,6.9-6.9,15.1-6.8,23.8c0,7.7,2.1,14.9,5.6,21.2c1.6,2.9,3.5,5.6,5.7,8c2.1,2.3,4.4,4.4,7,6.3c6.2,4.5,13.7,7.4,21.8,8
			c1.2,0.1,2.3,0.2,3.5,0.2h0.3c1.1,0,2.2-0.1,3.2-0.2c8.4-0.6,16-3.5,22.4-8c2.6-1.8,4.9-3.9,7-6.3c2.2-2.4,4.1-5.1,5.7-8
			c3.6-6.5,5.6-14,5.6-22C127.3,35.3,124.8,27.5,120.6,20.8z M113.9,65.8c-2.2,3-4.8,5.7-7.7,8c-3.6,2.8-7.8,5-12.2,6.3
			c-3.4,1-7,1.6-10.7,1.6h-0.1c-3.7,0-7.3-0.5-10.6-1.6c-4.5-1.3-8.5-3.5-12.1-6.3c-2.9-2.3-5.5-5-7.6-8c-4.3-6.1-6.8-13.5-6.8-21.5
			c0-8.9,3.1-17.1,8.3-23.4c2.5-3.1,5.6-5.8,9-8c0.9-0.5,1.7-1,2.6-1.5c5.2-2.7,11.2-4.3,17.5-4.3h0.1c6.2,0,12.1,1.5,17.2,4.3
			c0.9,0.5,1.8,1,2.6,1.5c3.4,2.2,6.4,4.9,8.9,8c5.2,6.5,8.4,14.8,8.3,24C120.7,52.6,118.2,59.8,113.9,65.8z"/>
	</g>
</g>
</svg>
