<?xml version="1.0" encoding="utf-8"?>
<!-- Generator: Adobe Illustrator 19.0.0, SVG Export Plug-In . SVG Version: 6.00 Build 0)  -->
<svg version="1.1" id="Capa_1" xmlns="http://www.w3.org/2000/svg" xmlns:xlink="http://www.w3.org/1999/xlink" x="0px" y="0px"
	 viewBox="0 0 94.5 120.1" style="enable-background:new 0 0 94.5 120.1;" xml:space="preserve">
<style type="text/css">
	.st0{fill:#C5CF38;}
</style>
<g>
	<path class="st0" d="M30.7,54.3v5.8c-0.1,0-0.2,0-0.3,0c-1.4,0-2.8,0-4.2,0v-5.7c0.6,0,1.3,0,1.9,0C29,54.3,29.8,54.3,30.7,54.3z"
		/>
	<g>
		<path class="st0" d="M94.5,25.9c-0.1,1.1-0.5,1.9-1.7,2c-1.3,0.1-2-0.6-2.1-1.9c-0.6-5.3-2.5-9.9-6-13.9c-4.4-5-9.9-7.7-16.5-8.4
			c-1.7-0.2-2.4-0.9-2.3-2.1c0.1-1.3,1-1.8,2.7-1.7c13.2,1.3,23.1,10.3,25.6,23.3C94.3,24.2,94.3,25,94.5,25.9z"/>
		<path class="st0" d="M67.7,10.2c8.1,0.4,15.8,7.9,16.5,15.6c0.1,1.2-0.4,2-1.6,2.2c-1.1,0.3-2-0.5-2.3-1.8
			c-0.6-3.4-2.2-6.4-4.8-8.7c-2.3-2-4.9-3.1-7.9-3.4c-1.2-0.1-2-0.8-1.8-2.1C65.9,10.6,66.8,10.2,67.7,10.2z"/>
	</g>
	<g>
		<g>
			<rect x="35.2" y="29.3" class="st0" width="18" height="4.5"/>
			<path class="st0" d="M80.1,56.8V35.7c0-1.2-0.5-2.3-1.3-3.2L63.5,17.1c-0.8-0.8-2-1.3-3.2-1.3H30.7c-2.5,0-4.5,2-4.5,4.5v2.2
				c-3.7,0-6.7,3-6.7,6.7v25.3c-5.8,0.9-11,4-14.6,8.6C0.6,68.7-1,75.8,0.6,82.6c2.1,9.5,10.1,16.6,19.8,17.8l0.3,0
				c1.5,0.2,3,0.3,3.7,2.8c2.6,9.9,11.3,16.7,21.8,16.9c10.1,0.2,19.4-6.5,22.3-16c0.8-2.8,2.2-3.5,4.7-3.8
				C84,99,92.5,89.7,92.9,78.7C93.3,69.1,88.2,60.7,80.1,56.8z M62.1,22.2l11.6,11.6h-9.4c-1.2,0-2.2-1-2.2-2.2V22.2z M30.7,20.3h27
				v11.2c0,3.7,3,6.7,6.7,6.7h11.2v16.8v6v13.1H30.7V20.3z M77.2,93.2c-5.6,2.5-11.2,2.2-16.6-1.1c-1.6-1-3.3-0.7-4.2,0.7
				c-0.4,0.7-0.6,1.4-0.4,2.1c0.2,0.8,0.8,1.5,1.6,2c1.3,0.8,2.6,1.5,4,2c1.8,0.6,1.9,1.6,1.5,3.1c-2.2,7.3-9,12.3-16.6,12.3h-0.1
				c-7.8-0.1-14.7-5.3-16.7-12.9c-0.8-2.9-0.7-5.9,0-9.4c0.4-1.6-0.4-3.1-1.9-3.4c-1.7-0.4-3.1,0.4-3.6,2.2
				c-0.3,0.8-0.5,1.6-0.6,2.4c-0.2,1.5-1.2,1.6-2,1.6c-8.7-0.7-15.7-8.2-15.9-17c-0.2-8.2,5.9-15.6,13.8-17.2v18.2
				c0,3.7,3,6.7,6.7,6.7h29.2V81H26.2C25,81,24,80,24,78.7V60.1v-5.8v-25c0-1.2,1-2.2,2.2-2.2v47.2c0,2.5,2,4.5,4.5,4.5h46.4
				c1.7,0,3-1.3,3-3V63.5c3.4,2.4,5.8,6.1,6.8,10.8C88.5,81.9,84.4,89.9,77.2,93.2z"/>
			<rect x="35.2" y="63" class="st0" width="9" height="4.5"/>
			<polygon class="st0" points="35.2,45 55.4,45 55.4,42.8 55.4,40.5 35.2,40.5 			"/>
			<rect x="35.2" y="51.8" class="st0" width="11.2" height="4.5"/>
		</g>
	</g>
</g>
</svg>
