<?xml version="1.0" encoding="utf-8"?>
<!-- Generator: Adobe Illustrator 19.0.0, SVG Export Plug-In . SVG Version: 6.00 Build 0)  -->
<svg version="1.1" id="Capa_1" xmlns="http://www.w3.org/2000/svg" xmlns:xlink="http://www.w3.org/1999/xlink" x="0px" y="0px"
	 viewBox="0 0 94.5 120.1" style="enable-background:new 0 0 94.5 120.1;" xml:space="preserve">
<style type="text/css">
	.st0{fill:#C5CF38;}
	.st1{fill:none;}
</style>
<g id="XMLID_42_">
	<path id="XMLID_44_" class="st0" d="M74.1,11.2c-0.3-4.4-2.3-7.5-6.6-9c0,0,0,0,0,0c-1.6-0.6-3.3-0.8-4.9-0.8H26.3
		c-1.1,0-2.2,0.2-3.2,0.5c0,0,0,0,0,0c-2.9,0.8-5.4,2.3-6.6,5.2c-0.7,1.8-1,3.8-1,5.7c-0.1,31.5,0,63.1,0,94.7c0,0.3,0,0.7,0,1
		c0.2,6.6,4.6,10.2,10.4,10.3c2.8,0.1,5.6,0.1,8.4,0.1c2.9,0,5.8,0,8.7,0c0.7,0,1.4,0,2.1,0c2.9,0,5.8,0,8.7,0c3.3,0,6.6,0,9.9,0
		c2.3,0,4.5-0.8,6.4-2.1c3-2.1,4-5.3,4-8.8V12.2C74.1,11.9,74.1,11.5,74.1,11.2z M38.3,6.7c4.4,0,8.7,0,13.1,0c1,0,1.5,0.4,1.5,1.3
		c0,1-0.5,1.4-1.5,1.4c-2.2-0.1-4.4,0-6.5,0c-2.2,0-4.3,0-6.5,0c-1,0-1.4-0.5-1.4-1.4C36.8,7.1,37.3,6.7,38.3,6.7z M45.1,114.2
		c-0.1,0-0.2,0-0.3,0c-0.6,0-1.2-0.1-1.8-0.3c-2.1-0.7-3.5-2.7-3.5-5c0-2.2,1.5-4.2,3.5-4.9c0.6-0.2,1.2-0.3,1.8-0.3
		c0.1,0,0.2,0,0.3,0c2.8,0.2,5,2.5,5,5.4C50.1,111.8,47.9,114.1,45.1,114.2z M45.1,99.8H43V89.3h2.1V99.8z M68.7,99.8H53.8
		c0-14.5,0-28.9,0-43.3v-0.9c0.1,0,0.2-0.1,0.3-0.1c0.5,0.9,1,1.8,1.4,2.7c1.4,3.1,1.6,6.4,1.7,9.7c0,3.8-0.5,7.6-1.3,11.3
		c-0.2,1-0.1,1.9,0.6,2.7c0.8,0.9,1.8,1.2,2.9,0.9c1.3-0.3,2-1.3,2.2-2.5c0.4-2,0.7-4.1,0.9-6.2c0.7-5.6,0.6-11.2-1.1-16.6
		c-1-3.3-2.7-6.2-5.4-8.4c-1.1-0.9-2.3-1.3-3.7-1.3c-5,0-10-0.2-14.9,0.1c-2.3,0.1-3.3-0.9-4.2-2.6C33,45.1,33,45,32.9,44.8
		c-1.6-3.2-1.9-6.7-2-10.2c0-3.9,0.5-7.8,1.3-11.7c0.4-1.8-0.6-3.3-2.3-3.6c-1.6-0.3-3.1,0.7-3.4,2.4c-0.4,2.2-0.8,4.4-1.1,6.7
		c-0.6,4.8-0.6,9.5,0.5,14.2c1.1,4.7,3.3,8.7,7.5,11.2c0.6,0.4,0.8,0.8,0.8,1.5c0,14.8,0,29.6,0,44.5H21V14.7h47.7V99.8z"/>
	<path id="XMLID_43_" class="st0" d="M44.1,46.6c4.5,0,8.1-3.7,8-8.1c-0.1-4.4-3.7-8-8.1-8c-4.4,0-8.1,3.6-8.1,8
		C35.9,43,39.6,46.6,44.1,46.6z"/>
</g>
<rect id="XMLID_41_" x="21" y="14.7" class="st1" width="47.7" height="85.1"/>
</svg>
