<?xml version="1.0" encoding="utf-8"?>
<!-- Generator: Adobe Illustrator 19.0.0, SVG Export Plug-In . SVG Version: 6.00 Build 0)  -->
<svg version="1.1" id="Capa_1" xmlns="http://www.w3.org/2000/svg" xmlns:xlink="http://www.w3.org/1999/xlink" x="0px" y="0px"
	 viewBox="0 0 116.7 126.6" style="enable-background:new 0 0 116.7 126.6;" xml:space="preserve">
<style type="text/css">
	.st0{fill:#C5CF38;}
</style>
<g id="XMLID_65_">
	<g id="XMLID_79_">
		<g id="lG4GUb_3_">
			<g id="XMLID_86_">
				<path id="XMLID_87_" class="st0" d="M107.3,9.8C107.3,9.8,107.3,9.8,107.3,9.8c-1.5-0.7-3-1.2-4.6-1.4C91.2,7,79.7,5.5,68.2,4.1
					c-1-0.1-2.1-0.1-3.1,0.1h0c-2.9,0.4-5.4,1.5-6.9,4.2c-0.4,0.8-0.8,1.7-1.1,2.6C58,12,58.6,13.4,59,15c0.1,0.3,0.1,0.6,0.2,1
					c0.4,2.5,0.9,5,1.3,7.5c0.3-2.4,0.6-4.9,0.9-7.3c15.1,1.9,30.2,3.8,45.3,5.7c-3.4,27-6.8,53.9-10.2,81c-7.6-1-15.1-1.9-22.7-2.9
					c0.2,1.3,0.5,2.6,0.7,3.9c2.1,0.8,3.5,3.1,3.2,5.4c-0.3,2.1-1.8,3.7-3.8,4.2c-0.3,0.6-0.8,1.1-1.3,1.7c-1.1,1.1-2.3,1.9-3.6,2.5
					c6.8,0.9,13.7,1.7,20.5,2.5c2.2,0.3,4.4-0.2,6.4-1.2c3.1-1.7,4.4-4.5,4.9-7.9c3.8-30.3,7.6-60.6,11.5-90.9c0-0.3,0.1-0.7,0.1-1
					C112.6,15,111.1,11.8,107.3,9.8z M92.5,13.6c-0.1,1-0.6,1.3-1.6,1.1c-2.1-0.3-4.1-0.5-6.2-0.8c-2.1-0.3-4.1-0.6-6.2-0.8
					c-1-0.1-1.3-0.6-1.2-1.5c0.1-0.9,0.6-1.2,1.5-1.1c4.1,0.6,8.3,1.1,12.4,1.6C92.2,12.3,92.6,12.7,92.5,13.6z"/>
			</g>
		</g>
		<g id="XMLID_80_">
			<path id="XMLID_81_" class="st0" d="M84,56.9L82,56.4l1.6-12.6c2.9,0.6,5.4,1.9,7.2,4.1l4.5-3.5c-2.8-3.4-6-5.2-10.5-6.1l0.7-5.2
				l-4.8-0.6l-0.7,5.2c-7.5-0.2-12.5,3.9-13.4,10.5c-0.4,3.4,0.3,6.1,2.1,8.3c1.5,1.8,4.1,3.5,7.4,4.3l1.5,0.4L76,74.3
				c-2.7-0.5-5.1-1.4-7.1-3.1c-0.7-0.6-1.4-1.3-2-2.1l-3.3,2.5c0.2,1.1,0.4,2.2,0.6,3.4c1.7,1.7,3.7,2.9,6,3.7
				c1.4,0.5,2.9,0.9,4.6,1.2L74,86.1l4.8,0.6l0.8-6.5c7.6,0.3,13.2-3.5,14.1-10.4c0.4-3.5-0.3-6.7-2.3-8.9
				C89.8,59.2,87.7,58,84,56.9z M78.4,55.5C76.6,55,75,54.2,73.9,53c-1-1.1-1.3-2.5-1.1-4c0.4-3.4,3-5.7,7.1-5.6L78.4,55.5z
				 M87.4,69.3c-0.5,3.6-3.3,5.5-7.7,5.4l1.6-12.3l0.4,0.1c1.7,0.4,3.4,0.9,4.6,2.4C87.3,65.9,87.6,67.5,87.4,69.3z"/>
		</g>
	</g>
	<g id="XMLID_66_">
		<g id="lG4GUb_2_">
			<g id="XMLID_72_">
				<path id="XMLID_73_" class="st0" d="M75,106.3c-0.1-0.8-0.3-1.6-0.4-2.3c-0.2-1.3-0.5-2.6-0.7-3.9c-1.2-7.1-2.5-14.2-3.7-21.3
					l-1.3-7.5c-2.8-15.9-5.6-31.8-8.4-47.7c-0.4-2.5-0.9-5-1.3-7.5c-0.1-0.3-0.1-0.6-0.2-1c-0.4-1.6-1-3-1.9-4.1
					c-1.3-1.7-3.2-2.9-5.8-3.3h0c-1.6-0.3-3.2-0.2-4.8,0c-11.4,2-22.8,4-34.3,6c-1,0.2-2,0.5-2.9,1c0,0,0,0,0,0
					c-2.6,1.3-4.7,3.1-5.3,6c-0.4,1.8-0.4,3.7-0.1,5.5C9.1,56,14.3,85.8,19.6,115.6c0.1,0.3,0.1,0.6,0.2,1c1.3,6.2,6,8.9,11.5,8
					c11.9-1.9,23.8-4.1,35.7-6.2c0.7-0.1,1.4-0.3,2.1-0.6c1.3-0.6,2.6-1.4,3.6-2.5c0.5-0.5,1-1.1,1.3-1.7
					C75.3,111.4,75.5,108.9,75,106.3z M24.4,16.7c4.1-0.7,8.2-1.4,12.3-2.2c0.9-0.2,1.4,0.1,1.6,1c0.2,0.9-0.2,1.4-1.2,1.6
					c-2.1,0.3-4.1,0.7-6.2,1.1c-2.1,0.4-4.1,0.7-6.2,1.1c-1,0.2-1.4-0.2-1.5-1.1C23.1,17.3,23.5,16.9,24.4,16.7z M51.6,115.2
					c-0.7,1-1.9,1.8-3.3,2c-2.8,0.5-5.4-1.4-5.8-4.2c-0.3-2.1,0.7-4.2,2.5-5.2c0.5-0.3,1-0.5,1.6-0.6c2.8-0.5,5.4,1.4,5.9,4.2
					C52.8,112.8,52.4,114.1,51.6,115.2z M45.1,103.8c-7.2,1.3-14.4,2.5-21.6,3.8C18.8,80.8,14.1,54,9.4,27.2c15-2.6,30-5.3,45-7.9
					c0.3,1.5,0.5,2.9,0.8,4.4c1,5.9,2.1,11.7,3.1,17.6c1.8,10.1,3.5,20.3,5.3,30.4c0.2,1.1,0.4,2.2,0.6,3.4
					c1.4,8.1,2.8,16.2,4.3,24.3c0,0.1,0,0.2,0.1,0.4C60.7,101,52.9,102.4,45.1,103.8z"/>
			</g>
		</g>
		<g id="XMLID_67_">
			<path id="XMLID_68_" class="st0" d="M45.6,83.1l1.1,6.4L42,90.4l-1.1-6.2c-5.5,0.7-9.8-0.1-14.1-3.1l3.4-4.8
				c3.3,2.3,6.5,2.7,10.2,2.3l-2.2-12.8l-1.5,0.1c-3.4,0.2-6.4-0.7-8.3-1.9c-2.4-1.6-3.9-4-4.4-7.3c-1.2-6.6,2.4-12,9.7-14l-0.9-5.2
				l4.7-0.8l0.9,5.1c4.6-0.5,8.2,0.3,11.8,2.7l-3.3,4.6c-2.4-1.6-5.1-2.1-8.1-1.8l2.2,12.5l2-0.1c3.9-0.1,6.2,0.5,8.2,1.7
				c2.6,1.6,4.2,4.3,4.8,7.8C57.2,75.9,52.9,81.1,45.6,83.1z M35.1,47.8c-4,1.1-5.7,4-5.1,7.4c0.3,1.5,1,2.7,2.2,3.5
				c1.4,0.9,3.2,1.2,5,1.1L35.1,47.8z M47.5,66.3c-1.6-1-3.3-1-5.1-0.9l-0.4,0l2.1,12.2c4.2-1.2,6.4-3.8,5.7-7.4
				C49.5,68.5,48.7,67.1,47.5,66.3z"/>
		</g>
	</g>
</g>
</svg>
