<?xml version="1.0" encoding="utf-8"?>
<!-- Generator: Adobe Illustrator 19.0.0, SVG Export Plug-In . SVG Version: 6.00 Build 0)  -->
<svg version="1.1" id="Capa_1" xmlns="http://www.w3.org/2000/svg" xmlns:xlink="http://www.w3.org/1999/xlink" x="0px" y="0px"
	 viewBox="0 0 124.3 126.6" style="enable-background:new 0 0 124.3 126.6;" xml:space="preserve">
<style type="text/css">
	.st0{fill:#C5CF38;}
</style>
<g id="XMLID_66_">
	<path id="XMLID_76_" class="st0" d="M63.6,12.7c28.8,0,52.2,23.4,52.2,52.2s-23.4,52.2-52.2,52.2S11.4,93.7,11.4,64.9
		S34.8,12.7,63.6,12.7 M63.6,5.5C30.9,5.5,4.2,32.2,4.2,64.9s26.6,59.4,59.4,59.4S123,97.6,123,64.9S96.4,5.5,63.6,5.5L63.6,5.5z"/>
	<g id="XMLID_67_">
		<path id="XMLID_74_" class="st0" d="M21.3,72.4V62h22v10.3H21.3z"/>
		<path id="XMLID_68_" class="st0" d="M59.8,63.8c-5.3,0-10.1-3-10.1-9.3v-6.4c0-6.4,4.8-9.3,10.1-9.3c5.3,0,10.1,3,10.1,9.3v6.4
			C70,60.9,65.1,63.8,59.8,63.8z M62.2,48.4c0-1.9-1-2.6-2.4-2.6c-1.3,0-2.4,0.7-2.4,2.6v5.8c0,1.9,1,2.6,2.4,2.6
			c1.3,0,2.4-0.7,2.4-2.6V48.4z M68.3,87h-8.5l22.8-47.8h8.5L68.3,87z M91.1,87.4c-5.3,0-10.1-3-10.1-9.3v-6.4
			c0-6.4,4.8-9.3,10.1-9.3c5.3,0,10.1,3,10.1,9.3v6.4C101.2,84.4,96.4,87.4,91.1,87.4z M93.4,72c0-1.9-1-2.6-2.4-2.6
			c-1.3,0-2.4,0.7-2.4,2.6v5.8c0,1.9,1,2.6,2.4,2.6c1.3,0,2.4-0.7,2.4-2.6V72z"/>
	</g>
</g>
</svg>
