<?xml version="1.0" encoding="utf-8"?>
<!-- Generator: Adobe Illustrator 19.0.0, SVG Export Plug-In . SVG Version: 6.00 Build 0)  -->
<svg version="1.1" id="Capa_1" xmlns="http://www.w3.org/2000/svg" xmlns:xlink="http://www.w3.org/1999/xlink" x="0px" y="0px"
	 viewBox="0 0 197.3 118.6" style="enable-background:new 0 0 197.3 118.6;" xml:space="preserve">
<style type="text/css">
	.st0{fill:#FFFFFF;}
	.st1{fill:#C8D51E;}
</style>
<g>
	<path class="st0" d="M37.6,43.7h18.4c-2.3,10.3-11.8,15-20.3,15c-11.5,0-19.5-8.4-19.5-20.3c0-13.3,9.5-23.4,22.2-23.4
		c7.6,0,13,2.7,16.3,8.2l0.3,0.4l5.3-3.5L60,19.6c-4.2-7-11.6-10.7-21.5-10.7C21.9,8.9,9.4,21.6,9.4,38.4c0,15.4,10.7,26.2,26,26.2
		c16,0,26.7-10.1,27.8-26.2l0-0.5H38.6L37.6,43.7z"/>
	<path class="st0" d="M83.1,29.7C73,29.7,65,37.8,65,48c0,9.3,7.4,16.6,16.8,16.6c10.3,0,18-7.8,18-18.2
		C99.8,37.1,92.5,29.7,83.1,29.7z M93.3,46.3c0,7.4-4.7,12.6-11.4,12.6c-6.1,0-10.3-4.5-10.3-10.9c0-7.3,4.8-12.6,11.5-12.6
		C89.1,35.5,93.3,39.9,93.3,46.3z"/>
	<path class="st0" d="M120.9,29.7c-10.2,0-18.1,8-18.1,18.3c0,9.3,7.4,16.6,16.8,16.6c10.3,0,18-7.8,18-18.2
		C137.6,37.1,130.3,29.7,120.9,29.7z M131.1,46.3c0,7.4-4.7,12.6-11.4,12.6c-6.1,0-10.3-4.5-10.3-10.9c0-7.3,4.8-12.6,11.5-12.6
		C126.9,35.5,131.1,39.9,131.1,46.3z"/>
	<path class="st0" d="M172.7,58.4c-0.2-0.2-0.2-0.8-0.1-1.7l8.9-50.5h-6.4l-5.6,31.2c-2.1-4.7-6.8-7.7-12.2-7.7
		c-9.6,0-16.9,8.1-16.9,18.7c0,9.5,5.9,16.1,14.3,16.1c4.5,0,8.7-2.1,11.5-5.8c0,1.6,0.3,2.7,1.1,3.5c1,1.1,2.6,1.6,4.9,1.6h4
		l0.9-5.3h-3.6C173.2,58.7,172.9,58.6,172.7,58.4z M168,46.2L168,46.2c0,7.4-4.9,12.8-11.8,12.8c-5.6,0-9.2-4.1-9.2-10.4
		c0-7.8,4.6-13.1,11.4-13.1c2.6,0,4.9,0.9,6.6,2.6C167,40,168,42.9,168,46.2z"/>
</g>
<g>
	<path class="st1" d="M48.3,108.1c0.5-1,9.9-14.3,26.5-35c11.8-14.6,21.8-23.3,26.7-24c1.3-0.2,2.6,0.9,1.9,1.8
		c-3.2-0.2-15.7,12.6-26.9,26.2c-12.9,16.1-25.3,32.4-26.7,36.1c-1.2,3.5-10.6-0.4-9.5-3.3c4.3-9.5,11.9-53,9.4-55.3
		c0.8-2.1,6.4-2.3,7,0.6C58.3,62.1,48.5,106.9,48.3,108.1z"/>
	<path class="st1" d="M93.1,79.9c-0.5,1.9-2.1,3.7-5,9.4c-5,9.5-6.3,16.3-2.8,15.6c4.7-0.9,15.6-15.1,17.9-18.8
		c1.2-0.7,1.9,0.4,1.9,1.1c-1.9,5.1-11.1,16.9-15.4,19.5c-4.4,2.7-8.4,1-10.4-1.1c-2-2.2-2.2-7,1.8-15.2c3.4-7.2,6.5-10.6,6.8-13
		C88.8,75.8,93.6,77.5,93.1,79.9z M92.9,64.8c2.1-1.5,5.4-1.8,7.2-0.3c1.2,1,0.4,2.8-0.8,3.8c-1.3,1.1-3.8,1.6-6,1.3
		C91.1,69.3,90.7,66.3,92.9,64.8z"/>
	<path class="st1" d="M95.8,102.7c1.4-3.4,3.9-11.5,12.7-28.8c5-9.4,9.5-17.5,10-19c0.4-1.9,5.2-0.4,5.1,1.1c0,1.2-6.3,12.6-9.6,19
		c-5.8,10.9-9.9,19.5-10.3,20.6c0.8-1.2,9.9-15.5,17.5-19.4c4.5-2.3,9.2,1.9,9.5,4.8c0.2,5.6-6.8,18.6-14.5,24.2
		c1.2-0.4,2.6-0.9,4.2-1.6c5-2.2,14.6-13,17.5-17.4c1.1-0.5,2.1,0.1,1.9,1.2c-2.2,4.2-10.4,14.7-17.1,18c-6.6,3.3-15.1,4.2-21.8-0.2
		l-0.4,0.8C98.7,109.6,94.9,105,95.8,102.7z M102.1,103c1.4,1.4,3.2,2.6,6.1,1.7c7.6-2.1,20.8-25.8,14.9-26
		C118,78.6,106.7,95.6,102.1,103z"/>
	<path class="st1" d="M139.5,95c-0.6,1.7-1,3.3-1.1,4.7c-0.1,2.5,1.1,5.2,4,5.6c8.3,1,18.9-14.4,22.8-19.3c1-1.1,2.2-0.7,2.3,0.4
		c-2.8,5.7-10.7,17.1-18.2,21c-5.2,2.7-14,0.3-16.1-5.7c-3.3-9.2,7-24.1,14.4-27.7c6.1-2.9,12.9,3.3,12.3,7.2
		C159.2,85.7,146.7,92.1,139.5,95z M141,91.4c8-4.3,17.4-12.3,13.5-14.4C152.2,75.8,145,83.5,141,91.4z"/>
	<path class="st1" d="M173.8,83.2c0.4,3,2.2,6.1,3.4,9.1l0.8,2.8c0.1,0.7,0.1,1.4,0,2.1c-1.2,7.3-9,10.6-15.6,10.6
		c-6.8,0-9.3-2-10.2-4.4c-0.2-0.5-0.6-2.3,0.8-3.7c0.7-0.7,1.4-1,2.9-1.7c3.3-4.2,9.1-12.4,12.8-17.5c0-0.9,0.2-1.8,0.5-2.7
		c0.8-2.5,4.3-5.6,8-7.2c2.7-1.2,6.9,1.9,4.4,2.5C177.7,74.2,173.4,79,173.8,83.2z M172.9,96.2c-8,1.9-15.4,5.4-16.9,7.6
		c0.6,0.6,1.8,1,4.6,0.7C164.8,104.1,172.1,100.6,172.9,96.2z M169,84.8c-2.4,3.5-5.3,7.8-8,11.4c3.7-1.1,8-2.3,11.2-3h0.1
		C171.5,91.1,169.8,88.1,169,84.8z"/>
</g>
</svg>
